<?xml version="1.0" encoding="utf-8"?>
<!-- Generator: Adobe Illustrator 18.0.0, SVG Export Plug-In . SVG Version: 6.00 Build 0)  -->
<!DOCTYPE svg PUBLIC "-//W3C//DTD SVG 1.1//EN" "http://www.w3.org/Graphics/SVG/1.1/DTD/svg11.dtd">
<svg version="1.1" id="Layer_1" xmlns:sketch="http://www.bohemiancoding.com/sketch/ns"
	 xmlns="http://www.w3.org/2000/svg" xmlns:xlink="http://www.w3.org/1999/xlink" x="0px" y="0px" viewBox="0 0 1000 1000"
	 enable-background="new 0 0 1000 1000" xml:space="preserve">
<title>Untitled 2</title>
<desc>Created with Sketch.</desc>
<g>
	<path d="M170.7,423.5c-28.1-16.3-50.4-38.6-66.9-66.7c-16.5-28.1-24.7-59-24.7-92.6c0-33.3,8.3-64.1,24.8-92.4
		c16.5-28.3,38.9-50.7,67-67.3c28.1-16.6,58.8-24.9,92-24.9s63.9,8.3,92,24.9c28.1,16.6,50.5,39,67,67.3
		c16.5,28.3,24.8,59.1,24.8,92.4c0,33.3-8.2,64-24.7,92.1c-16.5,28.1-38.7,50.4-66.9,66.9c-28.1,16.5-58.9,24.7-92.2,24.7
		C229.6,448,198.8,439.8,170.7,423.5z M342.3,400.7c24-13.9,43-32.8,57-56.5c14-23.7,21-49.7,21-77.9c0-28.5-7.1-55-21.2-79.5
		c-14.1-24.5-33.2-44-57.1-58.6c-23.9-14.6-49.9-21.8-78.1-21.8c-28.3,0-54.6,7.3-78.9,22c-24.3,14.6-43.6,34.3-57.9,58.8
		c-14.3,24.6-21.4,51-21.4,79.2c0,27.9,7.1,53.7,21.3,77.6c14.2,23.8,33.5,42.7,57.8,56.8c24.3,14,50.7,21,79.1,21
		C292.2,421.7,318.3,414.7,342.3,400.7z M121.3,264l62.7-63.1v126L121.3,264z M262.9,121.8l62.7,63.1H200.2L262.9,121.8z
		 M200.2,343.1h125.5l-62.7,62.9L200.2,343.1z M341.8,200.9l62.7,63.1l-62.7,62.9V200.9z"/>
	<path d="M525.4,474.4v-421h419.7v421H525.4z M918.8,448V79.8H551.7V448H918.8z"/>
	<path d="M26.8,553.2v-26.4H473v447.3h-26.3v-421H26.8z M26.8,895.1V579.5h393.7v394.6H105.7v-79.1H26.8z M26.8,947.8v-26.4h52.6
		v52.7H53.1v-26.4H26.8z"/>
	<path d="M597,653.5c12.7-23,30.4-41,53.2-54.1c22.8-13.1,48.3-19.6,76.6-19.6c21.8,0,43,4.3,63.7,12.8
		c20.6,8.6,38.4,20.2,53.5,34.8c15.1,14.8,26.9,32,35.6,51.7c8.7,19.6,13,39.9,13,60.7c0,20.8-4.1,40.8-12.2,60
		c-8.2,19.2-19.3,35.9-33.4,50c-14.1,14-30.9,25.1-50.3,33.2s-39.5,12.1-60.4,12.1c-20.9,0-41.1-4.3-60.7-12.9
		c-19.5-8.6-36.5-20.5-51-35.6c-14.5-14.9-25.8-32.6-34.1-52.9c-8.3-20.3-12.5-41.5-12.5-63.3C578,702.1,584.3,676.5,597,653.5z
		 M629.9,684.7c0,9.6,2.4,18.3,7.1,26.4c4.8,8,11.2,14.4,19.4,19.2c8.1,4.8,17,7.2,26.5,7.2c9.5,0,18.4-2.4,26.5-7.2
		c8.1-4.8,14.6-11.2,19.3-19.2c4.7-8,7-16.8,7-26.4c0-9.6-2.3-18.3-7-26.4c-4.7-8-11.1-14.4-19.3-19.1c-8.2-4.7-17-7.1-26.5-7.1
		c-14.5,0-26.9,5.1-37.4,15.3C635.1,658,629.9,670.4,629.9,684.7z"/>
</g>
<g>
	<path d="M973.7,26.9v947.6H27V26.9H973.7 M1001.7-1.1H-1v1003.6h1002.6V-1.1L1001.7-1.1z"/>
</g>
</svg>
